<svg width="254" height="51" viewBox="0 0 254 51" fill="none" xmlns="http://www.w3.org/2000/svg">
<g clip-path="url(#clip0_34_643)">
<path d="M56.8008 37.8V17.6H65.0008C68.1008 17.6 70.6008 18.5 72.2008 20.2C73.9008 21.9 74.8008 24.4 74.8008 27.7C74.8008 31 73.9008 33.4 72.2008 35.2C70.5008 36.9 68.1008 37.8 65.0008 37.8H56.8008ZM61.2008 34.2H64.4008C68.3008 34.2 70.3008 32.1 70.3008 27.8C70.3008 25.7 69.8008 24.2 68.8008 23.1C67.8008 22 66.4008 21.4 64.4008 21.4H61.2008V34.2Z" fill="white"/>
<path d="M78.1992 37.8V17.6H86.3992C89.4992 17.6 91.9992 18.5 93.5992 20.2C95.2992 21.9 96.1992 24.4 96.1992 27.7C96.1992 31 95.2992 33.4 93.5992 35.2C91.8992 36.9 89.4992 37.8 86.3992 37.8H78.1992ZM82.5992 34.2H85.7992C89.6992 34.2 91.6992 32.1 91.6992 27.8C91.6992 25.7 91.1992 24.2 90.1992 23.1C89.1992 22 87.7992 21.4 85.7992 21.4H82.5992V34.2Z" fill="white"/>
<path d="M108.6 17.2C111.6 17.2 113.9 18.2 115.8 20.2C117.6 22.1 118.6 24.7 118.6 27.9C118.6 31.1 117.7 33.6 115.8 35.6C114 37.5 111.6 38.5 108.6 38.5C105.6 38.5 103.2 37.5 101.4 35.6C99.5996 33.7 98.5996 31.1 98.5996 27.9C98.5996 24.7 99.4996 22.1 101.3 20.2C103.1 18.1 105.6 17.2 108.6 17.2ZM108.5 20.8C106.8 20.8 105.5 21.4 104.5 22.7C103.5 23.9 103 25.6 103 27.7C103 29.9 103.5 31.6 104.5 32.8C105.5 34 106.8 34.7 108.6 34.7C110.3 34.7 111.6 34.1 112.6 32.8C113.6 31.6 114 29.8 114 27.7C114 25.6 113.5 23.9 112.5 22.7C111.6 21.4 110.2 20.8 108.5 20.8Z" fill="white"/>
<path d="M136.8 23.7H132.6C132.4 21.7 131.2 20.7 128.8 20.7C127.8 20.7 127 20.9 126.4 21.3C125.8 21.7 125.5 22.3 125.5 23C125.5 23.2 125.5 23.5 125.6 23.7C125.7 23.9 125.8 24.1 126 24.2C126.2 24.4 126.4 24.5 126.6 24.6C126.8 24.7 127.1 24.8 127.5 24.9C127.9 25 128.3 25.1 128.6 25.2C128.9 25.3 129.4 25.4 130 25.6C130.6 25.8 131.1 25.9 131.6 26C133.6 26.6 135.1 27.3 136 28.1C137 29 137.5 30.2 137.5 31.8C137.5 33 137.3 34 136.8 34.8C136.3 35.7 135.7 36.3 134.9 36.8C134.1 37.3 133.2 37.7 132.3 37.9C131.4 38.1 130.3 38.3 129.3 38.3C126.6 38.3 124.4 37.7 122.9 36.4C121.4 35.1 120.6 33.4 120.6 31.1H125C125.1 33.6 126.6 34.9 129.6 34.9C130.8 34.9 131.7 34.7 132.3 34.2C133 33.7 133.3 33 133.3 32.2C133.3 31.5 133 31 132.4 30.7C131.8 30.4 130.5 29.9 128.5 29.4C128.2 29.3 127.9 29.3 127.8 29.2C127.1 29 126.6 28.9 126.4 28.8C126.1 28.7 125.7 28.6 125.1 28.3C124.5 28.1 124.1 27.9 123.9 27.7C123.6 27.5 123.3 27.3 122.9 27C122.5 26.7 122.2 26.4 122.1 26.1C121.9 25.8 121.8 25.4 121.6 24.9C121.5 24.4 121.4 23.9 121.4 23.3C121.4 21.5 122.1 20 123.5 18.9C124.9 17.8 126.8 17.3 129.1 17.3C131.4 17.3 133.2 17.8 134.7 18.9C136 19.9 136.7 21.5 136.8 23.7Z" fill="white"/>
<path d="M148.6 28.3V31.9H140.1V28.3H148.6Z" fill="white"/>
<path d="M170.4 26.9V37.8H167.6L167.2 35.5C165.7 37.4 163.7 38.3 161.1 38.3C158.3 38.3 156 37.3 154.2 35.4C152.4 33.5 151.6 30.9 151.6 27.8C151.6 24.7 152.5 22.1 154.4 20.2C156.3 18.2 158.6 17.2 161.6 17.2C163.9 17.2 165.9 17.9 167.4 19.2C169 20.5 169.9 22.2 170.2 24.3H165.9C165.7 23.2 165.2 22.4 164.4 21.8C163.6 21.2 162.6 20.9 161.5 20.9C159.8 20.9 158.5 21.5 157.5 22.7C156.5 23.9 156.1 25.6 156.1 27.7C156.1 29.9 156.6 31.6 157.5 32.8C158.5 34 159.9 34.6 161.6 34.6C163 34.6 164.1 34.2 165 33.4C165.9 32.5 166.4 31.4 166.4 30.1H161.9V26.8H170.4V26.9Z" fill="white"/>
<path d="M191.4 17.6V29.7C191.4 32.6 190.7 34.7 189.3 36.1C187.9 37.5 185.8 38.1 182.8 38.1C179.8 38.1 177.6 37.4 176.2 36C174.8 34.6 174.1 32.5 174.1 29.6V17.6H178.5V29.7C178.5 31.3 178.8 32.6 179.4 33.4C180 34.2 181.2 34.6 182.8 34.6C184.4 34.6 185.5 34.2 186 33.4C186.6 32.6 186.9 31.4 186.9 29.7V17.6H191.4Z" fill="white"/>
<path d="M205.6 17.6L213.3 37.8H208.6L207 33.3H199.5L197.9 37.8H193.4L201.1 17.6H205.6ZM205.9 30.1L203.2 22.6L200.5 30.1H205.9Z" fill="white"/>
<path d="M215.401 17.6H225.401C227.401 17.6 229.001 18.1 230.301 19C231.601 19.9 232.201 21.4 232.201 23.3C232.201 24.5 231.901 25.5 231.301 26.4C230.701 27.3 229.901 27.9 228.901 28.3C230.601 28.7 231.601 30.2 231.901 33C231.901 33.1 231.901 33.4 232.001 33.9C232.001 34.4 232.101 34.8 232.101 35.1C232.101 35.4 232.201 35.7 232.201 36.1C232.301 36.5 232.301 36.9 232.501 37.1C232.601 37.4 232.701 37.6 232.901 37.7H228.301C228.101 37.4 228.001 37 228.001 36.6C227.901 36.1 227.901 35.5 227.801 34.8C227.701 34.1 227.701 33.7 227.701 33.6C227.501 32.2 227.201 31.2 226.601 30.6C226.101 30.1 225.101 29.8 223.601 29.8H219.701V37.7H215.301V17.6H215.401ZM219.801 21.1V26.7H224.001C225.201 26.7 226.201 26.5 226.901 26.1C227.601 25.7 227.901 24.9 227.901 23.8C227.901 22.7 227.601 22 226.901 21.6C226.201 21.2 225.301 21 224.201 21H219.801V21.1Z" fill="white"/>
<path d="M236 37.8V17.6H244.2C247.3 17.6 249.8 18.5 251.4 20.2C253.1 21.9 254 24.4 254 27.7C254 31 253.1 33.4 251.4 35.2C249.7 36.9 247.3 37.8 244.2 37.8H236ZM240.4 34.2H243.6C247.5 34.2 249.5 32.1 249.5 27.8C249.5 25.7 249 24.2 248 23.1C247 22 245.6 21.4 243.6 21.4H240.4V34.2Z" fill="white"/>
<path fill-rule="evenodd" clip-rule="evenodd" d="M21.7 50.3C10.6 49.3 0.9 29.3 0 12.4C7.9 11.2 15.8 6.3 21.7 0C27.3 6.2 35.5 11.2 43.4 12.4C42.5 29.3 32.9 49.3 21.7 50.3Z" fill="#0077FF"/>
<path fill-rule="evenodd" clip-rule="evenodd" d="M14.8 28V26.6L21.3 25.7V23.8L14.8 25.2V23.8L21.3 21.7V20L14.8 22.3V21.1L21.3 18V15.9L14.8 19.7V18.7L21.5 13.7L28.3 18.8V29.5H29.1V31.4H14V29.5H21.2V27.5L14.8 28Z" fill="white"/>
</g>
<defs>
<clipPath id="clip0_34_643">
<rect width="254" height="50.3" fill="white"/>
</clipPath>
</defs>
</svg>
