<svg width="200" height="200" viewBox="0 0 200 200" fill="none" xmlns="http://www.w3.org/2000/svg">
<path d="M187 65.9364L97.3165 185L9 67.7512L32.2294 15.0001H54.0919H76.2432L98.3946 53L120.546 15.0001L142.697 15L164.849 15.0001L187 65.9364Z" fill="#FF0037"/>
<path d="M131.075 30.823L113.075 62L145.075 64.5L125.075 119.5L167.075 62L153.575 30.823H131.075Z" fill="#FC7B7B"/>
<path d="M98.2674 179.539L12.9 67.0259L31.7394 20.0786L29.2242 66.5706L98.2674 179.539Z" fill="#CA002C"/>
<path d="M190.075 65.9364L100.391 185L12.075 67.7512L35.3044 15.0001H57.1668H79.3182L101.47 53L123.621 15.0001L145.772 15L167.924 15.0001L190.075 65.9364Z" stroke="#35000B" stroke-width="10"/>
</svg>
