<svg xmlns="http://www.w3.org/2000/svg" viewBox="0 0 64 64">
  <!-- Shadow -->
  <path d="M32 57 C19 47 5 37 5 21 C5 12 12 5 21 5 C26 5 30 8 32 12 C34 8 38 5 43 5 C52 5 59 12 59 21 C59 37 45 47 32 57Z"
        fill="#7a0018" transform="translate(1,2)"/>
  <!-- Base -->
  <path d="M32 57 C19 47 5 37 5 21 C5 12 12 5 21 5 C26 5 30 8 32 12 C34 8 38 5 43 5 C52 5 59 12 59 21 C59 37 45 47 32 57Z"
        fill="#e8002a"/>
  <!-- Mid tone -->
  <path d="M32 50 C21 42 9 33 9 21 C9 14 15 9 21 9 C26 9 30 12 32 16 C34 12 38 9 43 9 C49 9 55 14 55 21 C55 33 43 42 32 50Z"
        fill="#ff1133"/>
  <!-- Top highlight flat polygon -->
  <polygon points="21,9 12,18 21,14 32,20 32,14 26,9" fill="#ff4466"/>
  <polygon points="43,9 52,18 43,14 32,20 32,14 38,9" fill="#ff3355"/>
  <!-- Shine -->
  <polygon points="14,13 20,10 22,16 16,19" fill="#ff8899" opacity="0.7"/>
</svg>
