<svg xmlns="http://www.w3.org/2000/svg" viewBox="0 0 64 64">
  <!-- Shadow -->
  <path d="M32 57 C19 47 5 37 5 21 C5 12 12 5 21 5 C26 5 30 8 32 12 C34 8 38 5 43 5 C52 5 59 12 59 21 C59 37 45 47 32 57Z"
        fill="#200008" transform="translate(1,2)"/>
  <!-- Base dark -->
  <path d="M32 57 C19 47 5 37 5 21 C5 12 12 5 21 5 C26 5 30 8 32 12 C34 8 38 5 43 5 C52 5 59 12 59 21 C59 37 45 47 32 57Z"
        fill="#480010"/>
  <!-- Mid tone -->
  <path d="M32 50 C21 42 9 33 9 21 C9 14 15 9 21 9 C26 9 30 12 32 16 C34 12 38 9 43 9 C49 9 55 14 55 21 C55 33 43 42 32 50Z"
        fill="#600018"/>
  <!-- Crack: dark gap -->
  <polyline points="33,12 28,26 36,35 27,57"
            fill="none" stroke="#1a0008" stroke-width="5" stroke-linecap="butt" stroke-linejoin="miter"/>
  <!-- Crack: main line -->
  <polyline points="33,12 28,26 36,35 27,57"
            fill="none" stroke="#200a10" stroke-width="3" stroke-linecap="butt" stroke-linejoin="miter"/>
  <!-- Crack: bright edge glow -->
  <polyline points="33,12 28,26 36,35 27,57"
            fill="none" stroke="#cc1030" stroke-width="1" stroke-linecap="butt" stroke-linejoin="miter" opacity="0.8"/>
</svg>
