<svg xmlns="http://www.w3.org/2000/svg" viewBox="0 0 64 64">
  <!-- Border hex -->
  <polygon points="32,2 58,17 58,47 32,62 6,47 6,17" fill="#11cc33"/>
  <!-- Body -->
  <polygon points="32,7 53.6,19.5 53.6,44.5 32,57 10.4,44.5 10.4,19.5" fill="#060e07"/>
  <!-- Inner panel -->
  <polygon points="32,11 50,21 50,43 32,53 14,43 14,21" fill="#0a1a0c"/>
  <!-- Top-left highlight -->
  <polygon points="32,12 44,19 40,29 32,22 24,29 20,19" fill="white" opacity="0.03"/>
  <!-- Left eye — angry tilt -->
  <g transform="rotate(-18,20,32)">
    <ellipse cx="20" cy="32" rx="7" ry="4.5" fill="#33ff55"/>
    <ellipse cx="18" cy="30" rx="2.5" ry="1.5" fill="white" opacity="0.88"/>
  </g>
  <!-- Right eye — angry tilt -->
  <g transform="rotate(18,44,32)">
    <ellipse cx="44" cy="32" rx="7" ry="4.5" fill="#33ff55"/>
    <ellipse cx="46" cy="30" rx="2.5" ry="1.5" fill="white" opacity="0.88"/>
  </g>
</svg>
