<svg width="300" height="303" viewBox="0 0 300 303" fill="none" xmlns="http://www.w3.org/2000/svg">
<mask id="mask0_112_818" style="mask-type:alpha" maskUnits="userSpaceOnUse" x="1" y="0" width="299" height="303">
<path d="M148.759 0L1 54.4964V249.376L148.759 303L300 249.376V54.4964L148.759 0Z" fill="#D9D9D9"/>
</mask>
<g mask="url(#mask0_112_818)">
<rect y="3" width="300" height="300" fill="black"/>
<rect width="270.618" height="312.293" transform="matrix(0.999384 0.0351071 -0.0263553 0.999653 18.8896 -3.34253)" fill="#140024"/>
<rect width="267.286" height="308.255" transform="matrix(0.997951 -0.0639792 0.04806 0.998845 9.22314 12.1007)" fill="#140024"/>
<rect x="26" y="169" width="243" height="119" fill="#11001F"/>
<rect x="44" y="218" width="130" height="54" fill="#0E0019"/>
<rect x="30" y="20" width="242" height="122" fill="#1A002F"/>
<rect x="113" y="44" width="145" height="45" fill="#1F0336"/>
<rect y="3" width="300" height="300" fill="#00FF73" fill-opacity="0.87" style="mix-blend-mode:color"/>
<path d="M150.9 136.177L139.597 113.794L139.758 129.453L38.7751 117.945L148.229 144.451L150.9 136.177Z" fill="black"/>
<path d="M150.653 135.941C149.727 148.9 143.243 160.928 132.626 169.379C122.009 177.831 108.129 182.013 94.0392 181.007C79.9499 180.001 66.8053 173.888 57.497 164.013C48.1888 154.139 43.4794 141.311 44.4049 128.353L97.5289 132.147L150.653 135.941Z" fill="black"/>
<path d="M141.949 141.728C140.017 150.274 132.691 157.232 121.583 161.072C110.475 164.913 96.4943 165.32 82.7167 162.206C68.9392 159.091 56.4933 152.71 48.1171 144.465C39.7408 136.22 36.1204 126.787 38.0522 118.241L90.0007 129.985L141.949 141.728Z" fill="#00C50D"/>
<path d="M117.048 140.784C115.757 146.493 111.81 151.356 106.076 154.303C100.342 157.25 93.2894 158.04 86.4704 156.498C79.6515 154.957 73.6245 151.211 69.7154 146.084C65.8063 140.956 64.3353 134.869 65.6259 129.159L91.3368 134.972L117.048 140.784Z" fill="#FEEAE6"/>
<path d="M149.585 135.973C150.51 148.931 156.995 160.959 167.612 169.411C178.229 177.862 192.109 182.045 206.198 181.038C220.288 180.032 233.432 173.919 242.741 164.045C252.049 154.17 256.758 141.343 255.833 128.384L202.709 132.178L149.585 135.973Z" fill="black"/>
<path d="M149.67 136.297L160.973 113.914L160.812 129.574L261.795 118.065L152.34 144.571L149.67 136.297Z" fill="black"/>
<path d="M158.055 141.697C159.919 149.942 167.18 156.613 178.24 160.241C189.3 163.869 203.254 164.157 217.032 161.043C230.809 157.928 243.282 151.666 251.706 143.633C260.131 135.6 263.816 126.455 261.952 118.21L210.004 129.953L158.055 141.697Z" fill="#00C50D"/>
<path d="M182.957 140.752C184.247 146.462 188.194 151.325 193.928 154.272C199.663 157.219 206.715 158.009 213.534 156.467C220.353 154.926 226.38 151.179 230.289 146.052C234.198 140.925 235.669 134.837 234.378 129.128L208.668 134.94L182.957 140.752Z" fill="#FEEAE6"/>
<rect opacity="0.1" x="252" y="230" width="12" height="12" fill="#FE1800" fill-opacity="0.36"/>
<rect opacity="0.1" width="12" height="12" transform="matrix(1 0 0 -1 258 77.0001)" fill="#FF35EB"/>
<rect opacity="0.1" x="60" y="244" width="12" height="12" fill="#FE1800" fill-opacity="0.36"/>
<rect opacity="0.1" width="12" height="12" transform="matrix(1 0 0 -1 66 63.0001)" fill="#FE1800" fill-opacity="0.36"/>
<rect opacity="0.1" x="48" y="208" width="12" height="12" fill="#FE1800" fill-opacity="0.36"/>
<rect opacity="0.1" width="12" height="12" transform="matrix(1 0 0 -1 54 99.0001)" fill="#FE1800" fill-opacity="0.36"/>
<rect opacity="0.1" x="96" y="254" width="12" height="12" fill="#FE1800" fill-opacity="0.36"/>
<rect opacity="0.1" width="12" height="12" transform="matrix(1 0 0 -1 102 53)" fill="#FE1800" fill-opacity="0.36"/>
<rect opacity="0.1" width="12" height="12" transform="matrix(0 1 1 0 156 278)" fill="#FE1800" fill-opacity="0.36"/>
<rect opacity="0.1" x="162" y="29" width="12" height="12" transform="rotate(-90 162 29)" fill="#FE1800" fill-opacity="0.36"/>
<rect opacity="0.1" width="12" height="12" transform="matrix(0 1 1 0 216 230)" fill="#FE1800" fill-opacity="0.36"/>
<rect opacity="0.1" x="222" y="77" width="12" height="12" transform="rotate(-90 222 77)" fill="#FF35EB"/>
<rect opacity="0.1" x="240" y="254" width="12" height="12" fill="#FE1800" fill-opacity="0.36"/>
<rect opacity="0.1" width="12" height="12" transform="matrix(1 0 0 -1 246 53)" fill="#FF35EB"/>
<rect opacity="0.1" x="48" y="232" width="12" height="12" fill="#FE1800" fill-opacity="0.36"/>
<rect opacity="0.1" width="12" height="12" transform="matrix(1 0 0 -1 54 75.0001)" fill="#FE1800" fill-opacity="0.36"/>
<rect opacity="0.1" x="36" y="268" width="12" height="12" fill="#FE1800" fill-opacity="0.36"/>
<rect opacity="0.1" width="12" height="12" transform="matrix(1 0 0 -1 42 39)" fill="#FE1800" fill-opacity="0.36"/>
<rect opacity="0.1" x="84" y="278" width="12" height="12" fill="#FE1800" fill-opacity="0.36"/>
<rect opacity="0.1" width="12" height="12" transform="matrix(1 0 0 -1 90 29)" fill="#FE1800" fill-opacity="0.36"/>
<rect opacity="0.1" width="12" height="12" transform="matrix(0 1 1 0 180 266)" fill="#FE1800" fill-opacity="0.36"/>
<rect opacity="0.1" x="186" y="41" width="12" height="12" transform="rotate(-90 186 41)" fill="#FF35EB"/>
<rect opacity="0.1" x="24" y="220" width="12" height="12" fill="#FE1800" fill-opacity="0.36"/>
<rect opacity="0.1" width="12" height="12" transform="matrix(1 0 0 -1 30 87.0001)" fill="#FE1800" fill-opacity="0.36"/>
<rect opacity="0.1" x="72" y="266" width="12" height="12" fill="#FE1800" fill-opacity="0.36"/>
<rect opacity="0.1" width="12" height="12" transform="matrix(1 0 0 -1 78 41)" fill="#FE1800" fill-opacity="0.36"/>
<rect opacity="0.1" width="12" height="12" transform="matrix(0 1 1 0 168 254)" fill="#FE1800" fill-opacity="0.36"/>
<rect opacity="0.1" x="174" y="53" width="12" height="12" transform="rotate(-90 174 53)" fill="#FF35EB"/>
<rect opacity="0.1" width="12" height="12" transform="matrix(0 1 1 0 228 206)" fill="#FE1800" fill-opacity="0.36"/>
<rect opacity="0.1" x="234" y="101" width="12" height="12" transform="rotate(-90 234 101)" fill="#FF35EB"/>
<path d="M5 245.116V56.7952L147.803 4L297 56.7952V245.116L147.803 299L5 245.116Z" stroke="#00FFCC" stroke-width="24"/>
<path d="M5 56.7952V245.116L147.803 299L297 245.116" stroke="#00FE11" stroke-width="24"/>
<path d="M187.521 211.686C191.356 213.049 193.057 217.556 189.977 220.217C188.187 221.763 186.057 223.147 183.608 224.347C178.34 226.93 171.698 228.618 164.063 229.314C156.428 230.01 147.949 229.701 139.109 228.404C131.488 227.287 123.729 225.454 116.16 222.989C114.238 222.363 113.368 220.159 114.293 218.362V218.362C115.059 216.876 116.803 216.19 118.392 216.71C124.549 218.725 130.865 220.222 137.067 221.131C144.201 222.177 151.044 222.427 157.205 221.865C163.367 221.303 168.727 219.941 172.978 217.857C175.069 216.832 176.872 215.642 178.366 214.306C180.874 212.063 184.35 210.559 187.521 211.686V211.686Z" fill="#00C50D"/>
</g>
</svg>
