<svg xmlns="http://www.w3.org/2000/svg" viewBox="0 0 64 64">
  <!-- Border hex -->
  <polygon points="32,2 58,17 58,47 32,62 6,47 6,17" fill="#ff8811"/>
  <!-- Body -->
  <polygon points="32,7 53.6,19.5 53.6,44.5 32,57 10.4,44.5 10.4,19.5" fill="#0e0400"/>
  <!-- Inner panel -->
  <polygon points="32,11 50,21 50,43 32,53 14,43 14,21" fill="#1c0900"/>
  <!-- Top-left highlight -->
  <polygon points="32,12 44,19 40,29 32,22 24,29 20,19" fill="white" opacity="0.03"/>
  <!-- Left eye — squinting/sly -->
  <g transform="rotate(-6,20,33)">
    <ellipse cx="20" cy="33" rx="7" ry="3.8" fill="#ffcc22"/>
    <ellipse cx="18" cy="31.5" rx="2.5" ry="1.4" fill="white" opacity="0.85"/>
  </g>
  <!-- Right eye — squinting/sly -->
  <g transform="rotate(6,44,33)">
    <ellipse cx="44" cy="33" rx="7" ry="3.8" fill="#ffcc22"/>
    <ellipse cx="46" cy="31.5" rx="2.5" ry="1.4" fill="white" opacity="0.85"/>
  </g>
  <!-- Sly grin -->
  <path d="M22,44 Q32,51 42,44" fill="none" stroke="#ff8811" stroke-width="1.8" stroke-linecap="round" opacity="0.6"/>
</svg>
