<svg width="273" height="243" viewBox="0 0 273 243" fill="none" xmlns="http://www.w3.org/2000/svg">
<path d="M43.25 105H229.25L256.25 129H16.25L43.25 105Z" fill="#295CA8"/>
<path d="M43.25 158H229.25L256.25 182H16.25L43.25 158Z" fill="#295CA8"/>
<rect x="16.25" y="40" width="240" height="79" fill="#CAD6EE"/>
<path d="M43.25 16H229.25L256.25 40H16.25L43.25 16Z" fill="#295CA8"/>
<path d="M43.25 16H229.25L16.25 40L43.25 16Z" fill="#17407E"/>
<rect x="16.25" y="129" width="240" height="43" fill="#B7C6E3"/>
<rect x="16.25" y="182" width="240" height="45" fill="#99AED9"/>
<g clip-path="url(#clip0_16_412)">
<ellipse cx="86.814" cy="93.6737" rx="36.2301" ry="34.6548" transform="rotate(-11.2584 86.814 93.6737)" fill="#4B42FF"/>
<path d="M79.3282 56.0664C98.9523 52.1602 118.096 65.2452 122.086 85.2927C123.593 92.8592 122.724 100.336 120.005 106.923C121.95 101.427 122.489 95.3811 121.275 89.2847C117.617 70.9078 99.4347 59.0392 80.6638 62.7756C61.8927 66.5122 49.641 84.4392 53.2992 102.816C54.5138 108.918 57.3307 114.301 61.2374 118.634C56.1975 113.589 52.5281 107.011 51.0208 99.4393C47.0302 79.3916 59.704 59.9729 79.3282 56.0664Z" fill="#4B42FF"/>
<path d="M116.29 87.0776C115.76 84.5723 114.653 82.2147 113.033 80.1394C111.412 78.064 109.31 76.3116 106.845 74.9822C104.381 73.6527 101.603 72.7723 98.6702 72.3912C95.7373 72.0101 92.7069 72.1357 89.7519 72.761C86.7969 73.3862 83.9753 74.4987 81.4481 76.0351C78.9209 77.5715 76.7376 79.5016 75.0229 81.7152C73.3083 83.9288 72.0958 86.3826 71.4547 88.9365C70.8136 91.4904 70.7564 94.0943 71.2865 96.5996L93.7884 91.8386L116.29 87.0776Z" fill="#ECEFFF"/>
</g>
<g clip-path="url(#clip1_16_412)">
<ellipse cx="36.2301" cy="34.6548" rx="36.2301" ry="34.6548" transform="matrix(-0.980757 -0.195233 -0.195233 0.980757 227.76 66.759)" fill="#4B42FF"/>
<path d="M192.948 56.0664C173.324 52.1602 154.18 65.2452 150.189 85.2927C148.684 92.8562 149.552 100.329 152.269 106.915C150.326 101.421 149.788 95.3781 151.001 89.2847C154.659 70.9078 172.841 59.0392 191.612 62.7756C210.383 66.5122 222.635 84.4392 218.977 102.816C217.763 108.915 214.948 114.295 211.044 118.627C216.081 113.583 219.748 107.008 221.255 99.4393C225.246 79.3916 212.572 59.9729 192.948 56.0664Z" fill="#4B42FF"/>
<path d="M157.286 87.0777C157.817 84.5723 158.923 82.2147 160.544 80.1394C162.165 78.064 164.267 76.3116 166.731 74.9822C169.196 73.6527 171.974 72.7723 174.906 72.3912C177.839 72.0101 180.87 72.1357 183.825 72.761C186.78 73.3862 189.601 74.4987 192.129 76.0351C194.656 77.5715 196.839 79.5016 198.554 81.7152C200.268 83.9288 201.481 86.3826 202.122 88.9365C202.763 91.4904 202.82 94.0943 202.29 96.5996L179.788 91.8386L157.286 87.0777Z" fill="#ECEFFF"/>
</g>
<rect opacity="0.5" x="33.25" y="99" width="12" height="12" transform="rotate(-90 33.25 99)" fill="#FF35EB"/>
<rect opacity="0.5" x="39.25" y="107" width="12" height="12" transform="rotate(-90 39.25 107)" fill="#FF35EB"/>
<rect opacity="0.5" x="31.25" y="115" width="12" height="12" transform="rotate(-90 31.25 115)" fill="#FF35EB"/>
<rect opacity="0.5" x="47.25" y="103" width="12" height="12" transform="rotate(-90 47.25 103)" fill="#FF35EB"/>
<rect opacity="0.5" x="45.25" y="111" width="12" height="12" transform="rotate(-90 45.25 111)" fill="#FF35EB"/>
<rect opacity="0.5" width="12" height="12" transform="matrix(1.16368e-08 -1 -1 -1.16368e-08 238.25 99)" fill="#FF35EB"/>
<rect opacity="0.5" width="12" height="12" transform="matrix(1.16368e-08 -1 -1 -1.16368e-08 232.25 107)" fill="#FF35EB"/>
<rect opacity="0.5" width="12" height="12" transform="matrix(1.16368e-08 -1 -1 -1.16368e-08 240.25 115)" fill="#FF35EB"/>
<rect opacity="0.5" width="12" height="12" transform="matrix(1.16368e-08 -1 -1 -1.16368e-08 224.25 103)" fill="#FF35EB"/>
<rect opacity="0.5" width="12" height="12" transform="matrix(1.16368e-08 -1 -1 -1.16368e-08 226.25 111)" fill="#FF35EB"/>
<circle cx="189.25" cy="143" r="8" fill="#477BC8"/>
<circle cx="211.25" cy="143" r="8" fill="#477BC8"/>
<circle cx="232.25" cy="143" r="8" fill="#477BC8"/>
<circle cx="167.25" cy="143" r="8" fill="#477BC8"/>
<circle cx="224.75" cy="202.5" r="11.5" fill="#477BC8"/>
<rect x="26.25" y="135" width="48" height="16" fill="#477BC8"/>
<path d="M265 235H8V36.4023L10.6914 34.0156L37.7471 10.0156L40.0195 8H232.484L234.759 10.0215L262.315 34.5215L265 36.9082V235Z" stroke="#0099FF" stroke-width="16"/>
<path d="M40.25 8.5L8.25 36.4787V124.093H17.2687L8.25 132.586V177.486H17.2687L8.25 185.979V235H261.75" stroke="#0004FF" stroke-width="16"/>
<path d="M16 40L43.0561 16H229.443L257 40.5V121H247.48L257 129.176V174H247.48L257 182V227H16V182L25.0187 174H16V129L25.0187 121H16V40Z" stroke="#000271" stroke-width="10"/>
<defs>
<clipPath id="clip0_16_412">
<rect width="74" height="42" fill="white" transform="translate(42.25 63.4473) rotate(-11.2584)"/>
</clipPath>
<clipPath id="clip1_16_412">
<rect width="74" height="42" fill="white" transform="matrix(-0.980757 -0.195233 -0.195233 0.980757 230.026 63.4473)"/>
</clipPath>
</defs>
</svg>
