<svg width="32" height="32" viewBox="0 0 32 32" fill="none" xmlns="http://www.w3.org/2000/svg">
<g clip-path="url(#clip0_28_2941)">
<path d="M16 32C24.8366 32 32 24.8366 32 16C32 7.16344 24.8366 0 16 0C7.16344 0 0 7.16344 0 16C0 24.8366 7.16344 32 16 32Z" fill="url(#paint0_linear_28_2941)"/>
<path fill-rule="evenodd" clip-rule="evenodd" d="M7.24334 15.8311C11.9077 13.7989 15.0179 12.4592 16.5742 11.8119C21.0176 9.96378 21.9408 9.64273 22.5426 9.63213C22.675 9.6298 22.9709 9.6626 23.1626 9.81815C23.3245 9.9495 23.369 10.1269 23.3904 10.2515C23.4117 10.376 23.4382 10.6597 23.4171 10.8813C23.1763 13.4113 22.1344 19.5509 21.6044 22.3845C21.3801 23.5835 20.9385 23.9855 20.5109 24.0249C19.5818 24.1104 18.8762 23.4108 17.9763 22.8209C16.5681 21.8978 15.7725 21.3232 14.4056 20.4224C12.8259 19.3814 13.85 18.8093 14.7503 17.8742C14.9859 17.6295 19.0797 13.9058 19.1589 13.568C19.1689 13.5258 19.1781 13.3683 19.0845 13.2851C18.9909 13.202 18.8529 13.2304 18.7532 13.253C18.612 13.2851 16.3624 14.772 12.0043 17.7138C11.3658 18.1523 10.7874 18.3659 10.2692 18.3547C9.69792 18.3424 8.599 18.0317 7.78206 17.7662C6.78006 17.4405 5.98369 17.2682 6.05304 16.7151C6.08916 16.427 6.48592 16.1323 7.24334 15.8311Z" fill="white"/>
</g>
<defs>
<linearGradient id="paint0_linear_28_2941" x1="16" y1="0" x2="16" y2="31.7627" gradientUnits="userSpaceOnUse">
<stop stop-color="#2AABEE"/>
<stop offset="1" stop-color="#229ED9"/>
</linearGradient>
<clipPath id="clip0_28_2941">
<rect width="32" height="32" fill="white"/>
</clipPath>
</defs>
</svg>
