<svg width="32" height="32" viewBox="0 0 32 32" fill="none" xmlns="http://www.w3.org/2000/svg">
<g clip-path="url(#clip0_28_2942)">
<path d="M0 15.36C0 8.1192 0 4.49884 2.24942 2.24942C4.49884 0 8.1192 0 15.36 0H16.64C23.8808 0 27.5011 0 29.7506 2.24942C32 4.49884 32 8.1192 32 15.36V16.64C32 23.8808 32 27.5011 29.7506 29.7506C27.5011 32 23.8808 32 16.64 32H15.36C8.1192 32 4.49884 32 2.24942 29.7506C0 27.5011 0 23.8808 0 16.64V15.36Z" fill="#0077FF"/>
<path d="M17.027 23.0534C9.73366 23.0534 5.57372 18.0534 5.40039 9.7334H9.05372C9.17372 15.8401 11.867 18.4267 14.0003 18.9601V9.7334H17.4405V15.0001C19.5471 14.7734 21.7602 12.3734 22.5069 9.7334H25.9469C25.3736 12.9867 22.9736 15.3867 21.2669 16.3734C22.9736 17.1734 25.7071 19.2667 26.7471 23.0534H22.9603C22.1469 20.5201 20.1205 18.5601 17.4405 18.2934V23.0534H17.027Z" fill="white"/>
</g>
<defs>
<clipPath id="clip0_28_2942">
<rect width="32" height="32" fill="white"/>
</clipPath>
</defs>
</svg>
